<?xml version="1.0" standalone="no"?>
<!DOCTYPE svg PUBLIC "-//W3C//DTD SVG 1.1//EN" "http://www.w3.org/Graphics/SVG/1.1/DTD/svg11.dtd">
<svg t="1517016191351" class="icon" style="" viewBox="0 0 1024 1024" version="1.1" xmlns="http://www.w3.org/2000/svg"
     p-id="2054" xmlns:xlink="http://www.w3.org/1999/xlink" width="200" height="200">
  <defs>
    <style type="text/css"></style>
  </defs>
  <path
    d="M488.3 897.38c0 12.69 1.76 25.72-0.58 38-1.76 9.23-6.95 22.07-14 24.85s-20.83-2.13-27.28-8.27c-38.8-36.92-76.44-75.06-114.27-113Q212 718.41 92.2 597.54c-6.2-6.29-13.1-14.33-14.48-22.44-2.39-14.08 7.06-22.76 20.91-23.67C230 542.75 345 574.53 426.94 686.17c42.82 58.3 61.52 123.17 61.36 211.21zM538.38 888.12c-2.23-192.82 140.92-337.3 333.55-337.07 14.12 0 28.52-1.73 42.26 0.56 11.36 1.89 27.67 6 31.2 13.83 3.41 7.6-3.88 23.93-11.34 31.83-36.3 38.47-74.18 75.45-111.58 112.88q-115.91 116-231.9 231.92c-4 4-7.38 9.46-12.21 11.55-8.41 3.63-19.5 9.28-26.19 6.42s-12.1-14.75-13.2-23.31c-2.06-15.96-0.59-32.38-0.59-48.61z"
    fill="#E4372D" p-id="2055"></path>
  <path d="M930.48 496.51l-0.34-0.33-0.62 0.2zM730.16 518.67a164.37 164.37 0 0 0-17 7.07c0.55-0.24 6.52-3.11 17-7.07z"
        fill="#5FB644" p-id="2056"></path>
  <path
    d="M944.83 470.85l-0.14-0.13a15.42 15.42 0 0 0-1.79-1.65l-27.64-25.41c-14.77-13.91-29.73-27.64-43.93-42.1-37.17-37.88-72.72-77.36-110.33-114.78-31-30.89-65.05-58.78-96-89.78-33.7-33.79-64.81-70.14-98.06-104.39-36.93-38-69.13-38.19-107.61-0.87-34.79 33.74-68.6 68.5-102.85 102.8Q227.29 323.91 98.4 453.65l-0.06 0.07-4.64 4.69a35.8 35.8 0 0 0-4.17 5.24l-5.94 6.71a15.42 15.42 0 0 0-1.8 2l-0.1 0.11a15.34 15.34 0 0 0 12.43 24.37l15.41 0.08c35.82 2.73 72 1.56 107.64 5.45 57.53 6.29 112.24 24.69 158.74 58.94 58.34 43 106.42 96.16 135.3 167.18l2.59 5.5a73.26 73.26 0 0 1 6.83-19.12c41.12-77.53 67.36-109 139.17-156.55 17.27-11.43 34.55-23.55 53.39-32.62a164.37 164.37 0 0 1 17-7.07c32.6-12.32 108.76-35.16 199.36-22.29l0.62-0.2a15.34 15.34 0 0 0 14.64-25.32z"
    fill="#5FB644" p-id="2057"></path>
</svg>